PathFileType	4	(X/Y/Z)	C:\Users\Basilio\Documents\Thesis Gigler\squatting_fais\c3dfiles\058\SJ_pre4\markers_experimental.trc
DataRate	CameraRate	NumFrames	NumMarkers	Units	OrigDataRate	OrigDataStartFrame	OrigNumFrames
200.000000	200.000000	4	61	mm	200.000000	806	1290
Frame#	Time	FHD			LBHD			RBHD			C7			T10			CLAV			LSHO			LUUPA			LMUPA			LDUPA			LLEP			LMEP			LRAD			LUL			LRFIN			RSHO			RUPA1			RMUPA			RDUPA			RLEP			RMEP			RRAD			RUL			RUFIN			LASI			RASI			USACR			LSACR			RSACR			LTHI1			LTHI2			LTHI3			LTHI4			LLFC			LMFC			LTIB1			LTIB2			LTIB3			LTIB4			LLMAL			LMMAL			LHEE			LMT1			LMT2			LMT5			RTHI			RTHI2			RTHI3			RTHI4			RLFC			RMFC			RTIB1			RTIB2			RTIB3			RTIB4			RLMAL			RMMAL			RHEE			RMT1			RMT2			RMT5			
		X1	Y1	Z1	X2	Y2	Z2	X3	Y3	Z3	X4	Y4	Z4	X5	Y5	Z5	X6	Y6	Z6	X7	Y7	Z7	X8	Y8	Z8	X9	Y9	Z9	X10	Y10	Z10	X11	Y11	Z11	X12	Y12	Z12	X13	Y13	Z13	X14	Y14	Z14	X15	Y15	Z15	X16	Y16	Z16	X17	Y17	Z17	X18	Y18	Z18	X19	Y19	Z19	X20	Y20	Z20	X21	Y21	Z21	X22	Y22	Z22	X23	Y23	Z23	X24	Y24	Z24	X25	Y25	Z25	X26	Y26	Z26	X27	Y27	Z27	X28	Y28	Z28	X29	Y29	Z29	X30	Y30	Z30	X31	Y31	Z31	X32	Y32	Z32	X33	Y33	Z33	X34	Y34	Z34	X35	Y35	Z35	X36	Y36	Z36	X37	Y37	Z37	X38	Y38	Z38	X39	Y39	Z39	X40	Y40	Z40	X41	Y41	Z41	X42	Y42	Z42	X43	Y43	Z43	X44	Y44	Z44	X45	Y45	Z45	X46	Y46	Z46	X47	Y47	Z47	X48	Y48	Z48	X49	Y49	Z49	X50	Y50	Z50	X51	Y51	Z51	X52	Y52	Z52	X53	Y53	Z53	X54	Y54	Z54	X55	Y55	Z55	X56	Y56	Z56	X57	Y57	Z57	X58	Y58	Z58	X59	Y59	Z59	X60	Y60	Z60	X61	Y61	Z61	

807	4.03	61.11193084716798	1438.355712890625	-802.4024047851565	-85.90110778808595	1366.426391601563	-878.6075439453127	67.58182525634767	1459.954711914063	-944.4458618164065	-101.3430709838867	1292.530517578125	-907.9595336914065	-293.9229125976563	1071.706909179688	-918.490417480469	22.13389396667481	1172.56884765625	-887.0832519531252	50.08507537841798	1245.791259765625	-1032.519653320313	-107.4815139770508	1224.021362304688	-1206.979614257813	-104.0949630737305	1173.93701171875	-1214.780517578125	-155.8211669921875	1188.2587890625	-1244.623168945313	-224.6228790283204	1147.375122070313	-1277.153564453125	-277.4180603027344	1180.1494140625	-1229.622802734375	-339.3945617675782	963.9910888671877	-1109.901733398438	-335.4118041992188	907.283630371094	-1169.064331054688	-269.8365783691407	932.069763183594	-1095.217163085938	3.29726266860962	1257.79248046875	-738.2362060546876	-178.4684448242188	1246.915771484375	-599.9236450195314	-178.8222808837891	1195.73193359375	-592.3836669921876	-229.5127868652344	1209.879028320313	-565.0803222656251	-293.4650268554688	1183.329833984375	-538.4512329101564	-349.8233032226563	1198.581665039063	-608.2204589843751	-327.2274780273438	972.6018066406252	-703.3344726562501	-330.3447570800782	923.197204589844	-638.4213867187501	-273.4914855957032	914.387634277344	-725.4423828125001	-281.6991271972657	808.1755981445315	-1022.601989746094	-287.5382080078126	822.3358154296877	-791.9165039062502	-390.7662963867189	987.9263916015627	-910.5815429687502	-415.3750610351564	965.9931640625002	-938.1067504882815	-417.3496398925782	968.6961669921877	-880.9105224609377	-238.8139648437501	659.9680175781251	-1133.363403320313	-166.9989929199219	614.2102050781251	-1140.620849609375	-129.1341400146485	633.2368164062501	-1112.241333007813	-161.0920104980469	551.7175903320314	-1139.107055664063	-114.7001876831055	473.4664916992189	-1137.594360351563	-101.9043731689453	460.1280822753907	-1015.741516113281	-104.0634536743164	331.0523071289063	-1111.279052734375	-167.0812377929688	331.2884216308594	-1169.092651367188	-135.3647918701172	304.9434204101563	-1148.32177734375	-183.6734161376953	233.2357330322266	-1128.383422851563	-342.3085632324219	102.4291229248047	-1161.9833984375	-310.6797180175782	102.1223297119141	-1068.73876953125	-412.9684448242189	68.12363433837892	-1108.609619140625	-186.9485321044922	60.3370704650879	-1118.6435546875	-189.0958862304688	58.50849914550783	-1165.2314453125	-243.7649230957032	36.65197372436524	-1213.757934570313	-334.9527893066407	706.7765502929689	-689.0289306640626	-270.1715087890626	688.6669311523439	-681.7929687500001	-243.4146270751954	706.0482788085939	-687.7692260742189	-245.2673645019532	607.5979614257814	-681.0529174804689	-150.8430633544922	476.288299560547	-673.7294311523439	-120.5487518310547	453.6147766113282	-798.8083496093752	-166.0063018798828	278.0752563476563	-733.7980346679689	-231.4592742919922	232.6109924316407	-658.8294677734376	-203.607650756836	208.4234619140626	-689.1758422851564	-234.4275360107422	169.9879302978516	-717.8759765625001	-335.2643127441407	100.7329711914063	-661.3995971679689	-296.6717529296876	97.14097595214847	-750.8775024414064	-404.1729431152345	58.18794631958009	-722.6035156250001	-188.1443939208985	51.7670249938965	-683.9104614257814	-197.3647766113282	60.70100021362306	-632.5587768554689	-251.6988830566407	30.84941101074219	-588.7531738281251	
808	4.035	59.00293350219728	1450.5751953125	-802.2766723632815	-87.89943695068361	1379.060546875	-878.6511230468752	65.7955780029297	1472.155883789063	-943.867370605469	-103.8365173339844	1303.7568359375	-907.7534179687502	-293.2634582519532	1079.847534179688	-918.083679199219	21.58044052124024	1185.725463867188	-886.8907470703127	48.28715896606447	1260.34130859375	-1031.922485351563	-110.1741485595703	1237.218139648438	-1205.849609375	-105.8824310302735	1186.998779296875	-1213.876708984375	-158.0448150634766	1200.89306640625	-1243.2158203125	-226.8133697509766	1159.334716796875	-1275.708984375	-278.8281860351563	1190.554321289063	-1227.286254882813	-337.2336730957032	972.7121582031252	-1108.964111328125	-332.9035339355469	916.5706787109377	-1168.645263671875	-267.7251281738282	941.4288330078127	-1094.502807617188	2.42945146560669	1272.56201171875	-738.9063720703126	-180.7440643310547	1259.003662109375	-601.0004882812501	-180.0637817382813	1208.28369140625	-593.2800903320314	-231.3505249023438	1221.13525390625	-567.1889038085939	-294.2786560058594	1193.505981445313	-540.2981567382814	-350.6382446289063	1207.9775390625	-610.2462158203126	-326.1041870117188	981.2399902343752	-703.5952758789064	-329.6202392578126	932.2308349609377	-637.9700927734376	-271.5998840332032	922.9289550781252	-724.7360839843751	-278.3851928710938	817.0093383789065	-1023.954650878906	-283.5620727539063	829.5481567382815	-793.1458129882815	-389.2685852050782	994.6276855468752	-910.2639770507815	-413.6636657714845	972.6115722656252	-937.939880371094	-415.4183044433595	974.9378051757815	-880.6980590820315	-237.6302947998047	664.1488647460939	-1134.2294921875	-166.2484130859375	617.4989624023439	-1141.950805664063	-128.1261749267578	635.9363403320314	-1113.809814453125	-161.4262390136719	554.5398559570314	-1140.051513671875	-115.7030639648438	475.7429199218751	-1138.798461914063	-101.4045333862305	463.045379638672	-1016.884155273438	-104.6098709106446	333.0592346191407	-1112.575561523438	-167.876205444336	332.9573669433594	-1170.02783203125	-135.8694458007813	306.9561767578126	-1149.494873046875	-183.7950286865235	235.1556701660157	-1129.43896484375	-342.3696289062501	103.1558456420899	-1161.82373046875	-310.2999572753907	103.0107727050782	-1068.848754882813	-413.0523681640626	69.76012420654298	-1108.056030273438	-186.6959991455078	60.31447601318361	-1118.6875	-188.8872375488282	58.48731613159181	-1165.31982421875	-243.7664947509766	36.76156616210938	-1213.653930664063	-332.7225341796876	711.6488647460939	-688.7614746093751	-268.0659790039063	692.5584716796876	-681.4113159179689	-241.1957397460938	709.4339599609376	-687.2088623046876	-245.0375671386719	610.4539794921876	-681.2299194335939	-151.8845367431641	477.8765869140626	-673.5048217773439	-121.4564056396485	455.0268554687501	-798.7354736328127	-166.3750152587891	279.3643798828126	-733.7247314453126	-231.8332672119141	233.3354644775391	-658.7714233398439	-203.4921875000001	209.4954986572266	-689.3071289062501	-234.2071075439454	170.888427734375	-717.9387817382814	-335.1300659179688	101.1628036499024	-661.6237182617189	-296.2570800781251	97.42764282226565	-751.1231079101564	-403.5574035644532	58.459774017334	-723.2130737304689	-187.7447509765625	51.66794586181642	-683.8152465820314	-197.3309631347657	60.63065338134767	-632.5170898437501	-251.7416534423829	30.90510177612305	-588.8335571289064	
809	4.04	57.32657623291017	1462.773315429688	-801.4170532226565	-90.42732238769533	1391.373779296875	-878.294616699219	63.92064666748048	1484.67333984375	-943.403991699219	-106.3127059936524	1315.391967773438	-907.7002563476565	-292.9304504394532	1088.401123046875	-917.759704589844	20.75603675842286	1198.522094726563	-886.7921142578127	46.43907546997071	1274.712036132813	-1031.298828125	-112.8175735473633	1250.449096679688	-1204.557861328125	-107.9532241821289	1200.322998046875	-1212.932739257813	-160.592025756836	1213.898803710938	-1241.775390625	-228.3597412109376	1171.271118164063	-1274.341064453125	-280.3285217285157	1200.792236328125	-1225.487060546875	-334.9808044433594	982.034362792969	-1108.183715820313	-330.0655822753907	926.1270141601565	-1168.1865234375	-265.9479675292969	951.2442626953127	-1093.461791992188	0.6509376168251039	1287.8779296875	-739.6361694335939	-182.6611022949219	1271.562377929688	-602.3499145507814	-181.2484130859375	1220.566772460938	-594.4354858398439	-233.0870056152344	1232.691772460938	-568.5415649414064	-295.1790771484376	1203.999633789063	-542.3113403320314	-351.5257873535157	1217.24609375	-612.3114624023439	-324.6925354003907	989.9825439453127	-703.5284423828126	-328.2858581542969	941.5440673828127	-637.6722412109376	-269.7510070800782	932.1011962890627	-723.7479858398439	-274.4108276367188	825.1298828125002	-1023.298706054688	-279.4247741699219	838.528991699219	-792.5207519531252	-387.8125000000001	1001.501892089844	-910.071960449219	-411.9164123535157	978.9917602539065	-937.779479980469	-413.5698547363282	981.567810058594	-880.404235839844	-236.4821929931641	668.2684326171876	-1135.186645507813	-166.1068267822266	620.1690673828126	-1143.798706054688	-127.3878479003907	638.5825805664064	-1115.576538085938	-161.7320709228516	557.5142822265626	-1141.148681640625	-117.0547637939453	478.1373901367189	-1140.534301757813	-101.3432846069336	465.6997985839845	-1018.312194824219	-104.9950027465821	335.4833679199219	-1114.3037109375	-169.2344360351563	334.9121398925782	-1171.103271484375	-136.7657775878907	308.6806640625001	-1150.705200195313	-184.0877380371094	236.3602905273438	-1130.341552734375	-341.5274963378907	104.03564453125	-1161.79931640625	-309.7625122070313	104.0572357177735	-1068.845336914063	-412.0384216308595	70.44601440429689	-1107.817138671875	-186.4813079833985	60.2364959716797	-1118.744873046875	-188.6196746826172	58.46782684326173	-1165.42138671875	-244.1207733154297	37.16723251342774	-1213.47412109375	-330.9745178222657	716.0971069335939	-688.5050048828126	-266.5940856933594	695.7764282226564	-681.2390136718751	-239.4043426513672	712.6577758789064	-686.5867919921876	-244.6229248046876	613.8204956054689	-681.3144531250001	-153.263412475586	479.813690185547	-673.1758422851564	-122.4448013305664	456.7503051757814	-798.3890380859377	-166.8285369873047	280.6323242187501	-733.5200195312501	-232.1566162109376	234.5060577392579	-658.9810180664064	-203.4822845458985	210.1907653808594	-689.0656127929689	-234.1757812500001	171.947021484375	-717.9810791015626	-334.8981933593751	101.7224578857422	-661.9135742187501	-295.7911682128907	97.89660644531253	-751.3374023437501	-402.7626037597657	59.084774017334	-724.0668334960939	-187.4051513671875	51.6832847595215	-683.7720336914064	-197.2329864501954	60.42591476440431	-632.5414428710939	-251.7763671875001	31.02794647216798	-588.9941406250001	
810	4.045	54.95286941528322	1475.234375	-800.8353271484377	-92.37159729003908	1404.79345703125	-878.2476196289065	62.35526657104494	1497.158569335938	-942.9570312500002	-108.7964172363282	1327.344970703125	-907.6300048828127	-292.3960266113282	1096.725463867188	-917.2563476562502	20.36725044250489	1212.087036132813	-886.7900390625002	44.7595443725586	1289.552734375	-1030.688842773438	-115.8737030029297	1263.873291015625	-1203.101928710938	-110.2650985717774	1213.960327148438	-1211.978149414063	-163.1697540283203	1226.87109375	-1240.377075195313	-230.3218841552735	1183.410766601563	-1272.958618164063	-281.9893188476563	1211.636474609375	-1223.27490234375	-333.1997070312501	991.3597412109377	-1107.063842773438	-327.4683227539063	936.2163696289065	-1167.638671875	-263.6325988769532	961.174011230469	-1092.78125	-0.7329053878784181	1303.213745117188	-740.8154296875001	-184.9925079345703	1284.376586914063	-603.0991821289064	-182.4762420654297	1233.222900390625	-595.7188720703126	-234.6570281982422	1244.6240234375	-570.0217285156251	-296.1346435546876	1214.675659179688	-544.0729980468751	-352.2088012695313	1226.849731445313	-614.5171508789064	-323.4936218261719	999.006286621094	-703.6179199218751	-326.9393615722657	951.249938964844	-637.2354736328126	-267.7304687500001	941.2263793945315	-722.9512329101564	-270.4053039550782	834.403991699219	-1024.251708984375	-275.0337219238282	846.7859497070315	-793.3950805664065	-386.1131286621095	1008.62158203125	-910.1133422851565	-409.990936279297	985.8380126953127	-937.5723876953127	-411.6255187988282	988.0551757812502	-880.4017333984377	-235.5889892578126	672.5137329101564	-1136.29150390625	-165.7470703125	623.4890747070314	-1145.261962890625	-126.2610702514649	641.5897216796876	-1117.728271484375	-162.3548126220703	560.9949951171876	-1142.586669921875	-118.430534362793	480.498260498047	-1142.31201171875	-101.5338363647461	468.2461242675782	-1020.125549316406	-106.1362838745117	337.6991271972657	-1115.63330078125	-170.4075164794922	336.6249694824219	-1172.25146484375	-139.0460815429688	310.5243225097657	-1152.049682617188	-184.1404724121094	238.5284118652344	-1131.416870117188	-340.3824157714844	104.8010787963867	-1161.57177734375	-309.1926574707032	105.0832901000977	-1068.777587890625	-411.4894104003907	71.78846740722658	-1107.326293945313	-186.1877899169922	60.19555282592775	-1118.752319335938	-188.6154174804688	58.97703170776369	-1165.32421875	-244.0983276367188	37.27325439453126	-1213.298583984375	-328.8797302246094	721.1737670898439	-688.4393310546876	-264.7539062500001	699.7993774414064	-680.6845703125001	-237.1485290527344	716.0902709960939	-685.8911132812501	-244.1153869628907	617.1291503906251	-681.3557128906251	-154.5	481.5602416992189	-672.8608398437501	-123.7100219726563	458.335906982422	-798.1187744140627	-167.3639373779297	282.0192260742188	-733.2539062500001	-232.3941955566407	235.4449462890626	-659.1042480468751	-203.7823181152344	211.5348510742188	-689.0417480468751	-234.1145935058594	172.7602844238282	-717.9674072265626	-334.6435852050782	102.2130508422852	-662.3405761718751	-295.0474243164063	98.55032348632815	-751.5685424804689	-402.131317138672	59.98440170288087	-724.8300170898439	-186.7411041259766	51.88151931762697	-683.7019653320314	-197.0451202392579	60.32614517211915	-632.5062866210939	-251.8589630126954	31.2489242553711	-589.2026977539064	
